<svg width="60" height="60" viewBox="0 0 60 60" fill="none" xmlns="http://www.w3.org/2000/svg">
<path d="M35.625 50V46.25H43.125C44 46.25 44.7396 45.9479 45.3438 45.3438C45.9479 44.7396 46.25 44 46.25 43.125V36.875C46.25 35.3333 46.7188 33.9583 47.6562 32.75C48.5938 31.5417 49.7917 30.7083 51.25 30.25V29.75C49.7917 29.3333 48.5938 28.5104 47.6562 27.2812C46.7188 26.0521 46.25 24.6667 46.25 23.125V16.875C46.25 16 45.9479 15.2604 45.3438 14.6563C44.7396 14.0521 44 13.75 43.125 13.75H35.625V10H43.125C45.0417 10 46.6667 10.6667 48 12C49.3333 13.3333 50 14.9583 50 16.875V23.125C50 24 50.3021 24.7396 50.9062 25.3438C51.5104 25.9479 52.25 26.25 53.125 26.25H55V33.75H53.125C52.25 33.75 51.5104 34.0521 50.9062 34.6562C50.3021 35.2604 50 36 50 36.875V43.125C50 45.0417 49.3333 46.6667 48 48C46.6667 49.3333 45.0417 50 43.125 50H35.625ZM16.875 50C14.9583 50 13.3333 49.3333 12 48C10.6667 46.6667 10 45.0417 10 43.125V36.875C10 36 9.69792 35.2604 9.09375 34.6562C8.48958 34.0521 7.75 33.75 6.875 33.75H5V26.25H6.875C7.75 26.25 8.48958 25.9479 9.09375 25.3438C9.69792 24.7396 10 24 10 23.125V16.875C10 14.9583 10.6667 13.3333 12 12C13.3333 10.6667 14.9583 10 16.875 10H24.375V13.75H16.875C16 13.75 15.2604 14.0521 14.6562 14.6563C14.0521 15.2604 13.75 16 13.75 16.875V23.125C13.75 24.6667 13.2812 26.0521 12.3438 27.2812C11.4062 28.5104 10.2083 29.3333 8.75 29.75V30.25C10.2083 30.7083 11.4062 31.5417 12.3438 32.75C13.2812 33.9583 13.75 35.3333 13.75 36.875V43.125C13.75 44 14.0521 44.7396 14.6562 45.3438C15.2604 45.9479 16 46.25 16.875 46.25H24.375V50H16.875Z" fill="black"/>
</svg>
